<svg width="37" height="37" viewBox="0 0 37 37" fill="none" xmlns="http://www.w3.org/2000/svg">
<path d="M16.5 5.03554H9.5C6.69974 5.03554 5.29961 5.03554 4.23005 5.5805C3.28924 6.05987 2.52433 6.82477 2.04497 7.76558C1.5 8.83514 1.5 10.2353 1.5 13.0355V27.0355C1.5 29.8358 1.5 31.2359 2.04497 32.3055C2.52433 33.2463 3.28924 34.0112 4.23005 34.4906C5.29961 35.0355 6.69974 35.0355 9.5 35.0355H23.5C26.3003 35.0355 27.7004 35.0355 28.77 34.4906C29.7108 34.0112 30.4757 33.2463 30.955 32.3055C31.5 31.2359 31.5 29.8358 31.5 27.0355V20.0355M11.5 25.0355H14.2909C15.1062 25.0355 15.5138 25.0355 15.8974 24.9434C16.2376 24.8618 16.5627 24.7271 16.8609 24.5443C17.1973 24.3382 17.4856 24.0499 18.0621 23.4734L34 7.53554C35.3807 6.15482 35.3807 3.91625 34 2.53553C32.6193 1.15482 30.3807 1.15482 29 2.53553L13.0621 18.4734C12.4855 19.0499 12.1973 19.3382 11.9912 19.6746C11.8084 19.9728 11.6737 20.298 11.5921 20.6381C11.5 21.0217 11.5 21.4294 11.5 22.2447V25.0355Z" stroke="#fff" stroke-width="3" stroke-linecap="round" stroke-linejoin="round"/>
</svg>
