<svg width="37" height="37" viewBox="0 0 37 37" fill="none" xmlns="http://www.w3.org/2000/svg">
<path d="M18.2708 3.04167H9.85C6.83972 3.04167 5.33458 3.04167 4.1848 3.62751C3.17343 4.14283 2.35116 4.9651 1.83584 5.97647C1.25 7.12624 1.25 8.63138 1.25 11.6417V26.6917C1.25 29.702 1.25 31.2071 1.83584 32.3569C2.35116 33.3682 3.17343 34.1905 4.1848 34.7058C5.33458 35.2917 6.83972 35.2917 9.85 35.2917H26.3333C27.9995 35.2917 28.8326 35.2917 29.5162 35.1085C31.371 34.6115 32.8198 33.1627 33.3169 31.3078C33.5 30.6243 33.5 29.7912 33.5 28.125M29.9167 12V1.25M24.5417 6.625H35.2917M14.6875 12.8958C14.6875 14.8749 13.0832 16.4792 11.1042 16.4792C9.12515 16.4792 7.52083 14.8749 7.52083 12.8958C7.52083 10.9168 9.12515 9.3125 11.1042 9.3125C13.0832 9.3125 14.6875 10.9168 14.6875 12.8958ZM22.7322 19.02L7.57664 32.7978C6.72419 33.5727 6.29797 33.9602 6.26027 34.2958C6.22759 34.5868 6.33915 34.8754 6.55904 35.0687C6.81273 35.2917 7.38875 35.2917 8.5408 35.2917H25.3586C27.9371 35.2917 29.2264 35.2917 30.239 34.8585C31.5102 34.3147 32.523 33.3019 33.0668 32.0307C33.5 31.0181 33.5 29.7288 33.5 27.1503C33.5 26.2827 33.5 25.8489 33.4052 25.4449C33.286 24.9372 33.0574 24.4617 32.7354 24.0515C32.4792 23.725 32.1405 23.454 31.463 22.9121L26.4513 18.9027C25.7732 18.3603 25.4342 18.089 25.0609 17.9933C24.7318 17.909 24.3856 17.9199 24.0625 18.0248C23.6959 18.1439 23.3746 18.4359 22.7322 19.02Z" stroke="#A4A7AE" stroke-width="2.5" stroke-linecap="round" stroke-linejoin="round"/>
</svg>
