<svg width="14" height="18" viewBox="0 0 14 18" fill="none" xmlns="http://www.w3.org/2000/svg">
<path fill-rule="evenodd" clip-rule="evenodd" d="M3.07684 10.7247C3.19371 11.7304 3.36051 12.4898 3.72329 13.3852C4.08594 14.2803 4.8858 15.4771 5.86157 16.1892C6.83733 16.9012 8.42889 17.5661 9.50479 17.4947C10.5807 17.4236 11.0602 17.026 11.5551 16.5225C12.0498 16.0189 13.1621 14.4862 13.5497 13.0549C13.9377 11.6239 13.6957 11.1217 13.3835 10.7064C13.0716 10.2911 12.3677 10.0092 11.4071 10.0826C10.4464 10.156 9.40867 10.752 9.34964 11.2445C9.25834 12.0058 10.676 12.1109 10.4464 12.7796C10.3542 13.0489 10.0105 13.2658 9.09837 13.2383C8.18619 13.211 7.18766 12.7679 6.95554 12.0641C6.72341 11.3603 6.82488 10.7137 7.31779 10.3724C9.39957 8.93126 10.0942 7.74411 10.2308 7.20426C10.3673 6.6644 10.1536 6.03147 9.61349 5.54627C8.45366 4.50432 6.12127 4.96998 4.99022 5.77152C3.31151 6.96146 2.85141 8.78553 3.07684 10.7247ZM5.81565 0.885972C5.62141 1.32397 5.36545 2.23867 5.62368 2.99313C5.88205 3.7476 6.85942 4.60179 7.93438 4.40247C9.00921 4.20302 8.97628 2.52535 8.76557 1.79747C8.57494 1.13941 7.61564 0.0565121 6.9455 0.00385636C6.27535 -0.0487993 6.01003 0.447707 5.81565 0.885972ZM2.65931 3.47408C3.28862 4.39489 4.27282 4.53876 4.77242 4.36856C5.27201 4.19823 5.05608 2.80751 4.75515 2.16872C4.37911 1.37091 3.50241 1.29764 2.99224 1.5576C2.48206 1.81729 2.03013 2.55327 2.65931 3.47408ZM1.04352 4.13254C0.378461 4.36218 0.570562 5.7396 0.955433 6.28677C1.34017 6.83394 2.49063 7.13724 2.934 6.64366C3.37751 6.15008 2.8253 5.17396 2.55877 4.85815C2.29224 4.54209 1.70858 3.9029 1.04352 4.13254ZM0.0557052 7.57617C0.244325 7.14575 1.11286 7.1887 1.7644 7.56341C2.58555 8.03585 2.61888 9.221 2.13481 9.41434C1.74338 9.57071 1.04968 9.46952 0.616479 9.12632C0.183281 8.78313 -0.132915 8.00646 0.0557052 7.57617Z" fill="#DB6800"/>
</svg>
