<svg width="23" height="23" viewBox="0 0 23 23" fill="none" xmlns="http://www.w3.org/2000/svg">
<path d="M1.91675 21.0833C3.83341 21.0833 6.33276 21.4108 7.64264 20.1009C8.95253 18.791 8.95253 16.6673 7.64264 15.3574C6.33276 14.0475 4.20902 14.0475 2.89914 15.3574C1.58925 16.6673 2.89914 19.1667 1.91675 21.0833Z"/>
<path d="M7.6667 15.3333C7.19576 14.8624 6.96029 14.6269 6.82716 14.3803C6.50793 13.789 6.52168 13.0737 6.8634 12.4951C7.00591 12.2538 7.25026 12.0276 7.73895 11.5751L17.1958 2.81869C18.0288 2.04744 19.3223 2.07231 20.125 2.875C20.9277 3.67769 20.9526 4.97124 20.1813 5.80419L11.4249 15.2611C10.9725 15.7498 10.7462 15.9941 10.5049 16.1366C9.92632 16.4784 9.21101 16.4921 8.61969 16.1729C8.3731 16.0397 8.13763 15.8043 7.6667 15.3333Z" />
<path d="M8.62506 10.7546L12.2454 14.375M7.64264 20.1009C6.33276 21.4108 3.83341 21.0833 1.91675 21.0833C2.89914 19.1667 1.58925 16.6673 2.89914 15.3574C4.20902 14.0475 6.33276 14.0475 7.64264 15.3574C8.95253 16.6673 8.95253 18.791 7.64264 20.1009ZM11.4249 15.2611L20.1813 5.80419C20.9526 4.97124 20.9277 3.67769 20.125 2.875C19.3223 2.07231 18.0288 2.04744 17.1958 2.81869L7.73894 11.5751C7.25026 12.0276 7.00591 12.2538 6.8634 12.4951C6.52168 13.0737 6.50793 13.789 6.82716 14.3803C6.96029 14.6269 7.19576 14.8624 7.6667 15.3333C8.13763 15.8043 8.3731 16.0397 8.61969 16.1729C9.21101 16.4921 9.92632 16.4784 10.5049 16.1366C10.7462 15.9941 10.9725 15.7498 11.4249 15.2611Z" stroke="#000" stroke-width="2" stroke-linecap="round" stroke-linejoin="round"/>
</svg>
